<?xml version="1.0" encoding="UTF-8"?>
<svg width="700pt" height="700pt" version="1.1" viewBox="0 0 700 700" xmlns="http://www.w3.org/2000/svg">
 <g>
  <path d="m210 260h-0.28125c-11.043 0-20.004 8.9414-20.004 20.004 0 11.059 8.9414 20.004 20.004 20.004h0.29688 279.96 0.28125c11.043 0 20.004-8.9414 20.004-20.004 0-11.059-8.9414-20.004-20.004-20.004h-0.29688z"/>
  <path d="m370 140v-0.28125c0-11.043-8.9414-20.004-20.004-20.004-11.059 0-20.004 8.9414-20.004 20.004v0.29688-0.015625 279.98 0.28125c0 11.043 8.9414 20.004 20.004 20.004 11.059 0 20.004-8.9414 20.004-20.004v-0.29688 0.015625z"/>
  <path d="m350 0c-154.4 0-279.98 125.6-279.98 279.98s125.6 279.98 279.98 279.98c154.4 0 279.98-125.6 279.98-279.98s-125.6-279.98-279.98-279.98zm0 40.004c132.79 0 240 107.22 240 240s-107.2 240-240 240c-132.79 0-240-107.2-240-240 0-132.79 107.2-240 240-240z"/>
 </g>
</svg>
