<?xml version="1.0" encoding="UTF-8" standalone="no" ?>
<!DOCTYPE svg PUBLIC "-//W3C//DTD SVG 1.1//EN" "http://www.w3.org/Graphics/SVG/1.1/DTD/svg11.dtd">
<svg xmlns="http://www.w3.org/2000/svg" xmlns:xlink="http://www.w3.org/1999/xlink" version="1.1" width="1080" height="1080" viewBox="0 0 1080 1080" xml:space="preserve">
<desc>Created with Fabric.js 5.2.4</desc>
<defs>
</defs>
<g transform="matrix(1 0 0 1 540 540)" id="eb580b6b-8f6a-4a98-add4-b9610b1bb82c"  >
<rect style="stroke: none; stroke-width: 1; stroke-dasharray: none; stroke-linecap: butt; stroke-dashoffset: 0; stroke-linejoin: miter; stroke-miterlimit: 4; fill: rgb(255,255,255); fill-rule: nonzero; opacity: 1; visibility: hidden;" vector-effect="non-scaling-stroke"  x="-540" y="-540" rx="0" ry="0" width="1080" height="1080" />
</g>
<g transform="matrix(1 0 0 1 540 540)" id="6cef2a28-2e7a-40be-80dc-de6432912452"  >
</g>
<g transform="matrix(3.07 0 0 3.07 540 540)"  >
<path style="stroke: none; stroke-width: 1; stroke-dasharray: none; stroke-linecap: butt; stroke-dashoffset: 0; stroke-linejoin: miter; stroke-miterlimit: 4; fill: rgb(0,0,0); fill-rule: nonzero; opacity: 1;" vector-effect="non-scaling-stroke"  transform=" translate(-349.94, -280.01)" d="M 344.4 380.8 C 363.59099999999995 380.807813 382.556 376.6828 400.00899999999996 368.702 L 449.28999999999996 438.534 C 453.89939999999996 445.077 461.65299999999996 448.663 469.62199999999996 447.9402 C 477.59469999999993 447.21754 484.57499999999993 442.2957 487.93399999999997 435.0302 C 491.29339999999996 427.76849999999996 490.5238 419.2602 485.9106 412.71819999999997 L 437.13759999999996 343.55819999999994 C 467.47759999999994 314.56219999999996 482.5286 273.0541999999999 477.82859999999994 231.34819999999996 C 473.1293999999999 189.64119999999997 449.21959999999996 152.52819999999997 413.18359999999996 131.00819999999996 C 377.15259999999995 109.48819999999996 333.13659999999993 106.03519999999996 294.19359999999995 121.67619999999997 C 255.24859999999995 137.31719999999996 225.84159999999994 170.25019999999995 214.70159999999993 210.71519999999998 C 203.55659999999992 251.1762 211.95549999999992 294.52419999999995 237.40459999999993 327.8952 C 262.8535999999999 361.26619999999997 302.43159999999995 380.83619999999996 344.40459999999996 380.7972 z M 344.4 156.8 C 368.166 156.8 390.955 166.2375 407.75899999999996 183.042 C 424.55999999999995 199.847 434.001 222.636 434.001 246.397 C 434.001 270.163 424.5596 292.952 407.75899999999996 309.756 C 390.95399999999995 326.55699999999996 368.16499999999996 335.998 344.4 335.998 C 320.638 335.998 297.849 326.5566 281.04499999999996 309.756 C 264.23999999999995 292.95099999999996 254.80299999999997 270.162 254.80299999999997 246.39699999999996 C 254.80299999999997 222.63499999999996 264.2405 199.84599999999995 281.04499999999996 183.04199999999997 C 297.84999999999997 166.23699999999997 320.63899999999995 156.79999999999998 344.4 156.79999999999998 z" stroke-linecap="round" />
</g>
</svg>