<?xml version="1.0" encoding="UTF-8" standalone="no" ?>
<!DOCTYPE svg PUBLIC "-//W3C//DTD SVG 1.1//EN" "http://www.w3.org/Graphics/SVG/1.1/DTD/svg11.dtd">
<svg xmlns="http://www.w3.org/2000/svg" xmlns:xlink="http://www.w3.org/1999/xlink" version="1.1" width="1080" height="1080" viewBox="0 0 1080 1080" xml:space="preserve">
<desc>Created with Fabric.js 5.2.4</desc>
<defs>
</defs>
<g transform="matrix(1 0 0 1 540 540)" id="6c3925f3-6b5d-4664-a9e5-ce667deab443"  >
<rect style="stroke: none; stroke-width: 1; stroke-dasharray: none; stroke-linecap: butt; stroke-dashoffset: 0; stroke-linejoin: miter; stroke-miterlimit: 4; fill: rgb(255,255,255); fill-rule: nonzero; opacity: 1; visibility: hidden;" vector-effect="non-scaling-stroke"  x="-540" y="-540" rx="0" ry="0" width="1080" height="1080" />
</g>
<g transform="matrix(1 0 0 1 540 540)" id="07a835eb-65db-4e31-bd3b-f71dc9a02b00"  >
</g>
<g transform="matrix(1.99 0 0 1.99 540 540)"  >
<path style="stroke: none; stroke-width: 1; stroke-dasharray: none; stroke-linecap: butt; stroke-dashoffset: 0; stroke-linejoin: miter; stroke-miterlimit: 4; fill: rgb(0,0,0); fill-rule: nonzero; opacity: 1;" vector-effect="non-scaling-stroke"  transform=" translate(-350, -280)" d="M 282.8 16.801 C 261.374 16.801 243.601 34.574 243.601 56 L 243.601 72.801 L 212.8 72.801 C 180.51500000000001 72.801 153.99900000000002 99.31700000000001 153.99900000000002 131.602 L 153.99900000000002 173.602 C 153.99900000000002 178.0551 155.76850000000002 182.3286 158.92090000000002 185.481 C 162.06930000000003 188.6294 166.3428 190.399 170.7999 190.399 L 193.1979 190.399 L 193.1979 503.999 C 193.1979 525.4250000000001 210.9709 543.198 232.39690000000002 543.198 L 248.49890000000002 543.198 C 252.99500000000003 543.2605 257.33090000000004 541.5222 260.5339 538.3620999999999 C 263.73310000000004 535.2058999999999 265.5378 530.8973 265.5378 526.3970999999999 C 265.5378 521.901 263.7331 517.5923999999999 260.5339 514.4360999999999 C 257.3308 511.2758999999999 252.99480000000003 509.53379999999987 248.49890000000002 509.6001999999999 L 232.39690000000002 509.6001999999999 C 229.0063 509.6001999999999 226.7992 507.3931999999999 226.7992 503.9985999999999 L 226.7992 190.39859999999987 L 473.1992 190.39859999999987 L 473.1992 503.9985999999999 C 473.1992 507.3930999999999 470.9922 509.6001999999999 467.60150000000004 509.6001999999999 L 305.3715000000001 509.6001999999999 C 300.87540000000007 509.53379399999994 296.5395000000001 511.2759999999999 293.33650000000006 514.4360999999999 C 290.13730000000004 517.5922999999999 288.33260000000007 521.9008999999999 288.33260000000007 526.3970999999999 C 288.33260000000007 530.8970999999999 290.1373000000001 535.2056999999999 293.33650000000006 538.3620999999999 C 296.53960000000006 541.5223 300.8756000000001 543.2605 305.3715000000001 543.198 L 467.6015000000001 543.198 C 489.0275000000001 543.198 506.8005000000001 525.425 506.8005000000001 503.99899999999997 L 506.8005000000001 190.39899999999994 L 529.1985000000001 190.39899999999994 C 533.6555000000001 190.39899999999994 537.9290000000001 188.62949999999995 541.0775000000001 185.48099999999994 C 544.2298000000001 182.32869999999994 545.9994000000002 178.05519999999993 545.9994000000002 173.60199999999995 L 545.9994000000002 131.60199999999995 C 545.9994000000002 99.31699999999995 519.4834000000002 72.80099999999995 487.19840000000016 72.80099999999995 L 456.3974000000002 72.80099999999995 L 456.3974000000002 55.99999999999994 C 456.3974000000002 34.57399999999994 438.62440000000015 16.800999999999945 417.19840000000016 16.800999999999945 z M 282.8 50.399 L 417.20000000000005 50.399 C 420.59450000000004 50.399 422.80160000000006 52.606 422.80160000000006 56.0006 L 422.80160000000006 72.8016 L 277.2016000000001 72.8016 L 277.2016000000001 56.00059999999999 C 277.2016000000001 52.60609999999999 279.4086000000001 50.398999999999994 282.8032000000001 50.398999999999994 z M 212.8 106.399 L 487.2 106.399 C 501.454 106.399 512.399 117.348 512.399 131.602 L 512.399 156.80100000000002 L 187.599 156.80100000000002 L 187.599 131.602 C 187.599 117.348 198.54399999999998 106.399 212.798 106.399 z M 277.023 240.449 C 272.53860000000003 240.495875 268.2574 242.3357 265.132 245.55450000000002 C 262.0109 248.77720000000002 260.3078 253.11310000000003 260.3976 257.60150000000004 L 260.3976 448.0015000000001 C 260.3351 452.4976000000001 262.07730000000004 456.8335000000001 265.2335 460.0365000000001 C 268.39369999999997 463.2357000000001 272.7023 465.0404000000001 277.19849999999997 465.0404000000001 C 281.6946 465.0404000000001 286.0071 463.23570000000007 289.16349999999994 460.0365000000001 C 292.31969999999995 456.8334000000001 294.0618999999999 452.4974000000001 293.9993999999999 448.0015000000001 L 293.9993999999999 257.6015000000001 C 294.0931499999999 253.0546000000001 292.3431999999999 248.6640000000001 289.1438999999999 245.4295000000001 C 285.9446999999999 242.1990000000001 281.5696999999999 240.4022000000001 277.02289999999994 240.4490000000001 z M 349.824 240.449 C 345.3396 240.495875 341.0584 242.3357 337.933 245.55450000000002 C 334.8119 248.77720000000002 333.1049 253.11310000000003 333.1986 257.60150000000004 L 333.1986 448.0015000000001 C 333.1361 452.4976000000001 334.8783 456.8335000000001 338.0345 460.0365000000001 C 341.1907 463.2357000000001 345.50329999999997 465.0404000000001 349.99949999999995 465.0404000000001 C 354.49569999999994 465.0404000000001 358.80809999999997 463.23570000000007 361.96449999999993 460.0365000000001 C 365.12069999999994 456.8334000000001 366.8628999999999 452.4974000000001 366.8003999999999 448.0015000000001 L 366.8003999999999 257.6015000000001 C 366.8941499999999 253.0546000000001 365.14019999999994 248.6640000000001 361.9409999999999 245.4295000000001 C 358.74569999999994 242.1990000000001 354.37069999999994 240.4022000000001 349.8239999999999 240.4490000000001 z M 422.625 240.449 C 418.1367 240.495875 413.8555 242.3357 410.734 245.55450000000002 C 407.61289999999997 248.77720000000002 405.9059 253.11310000000003 405.9996 257.60150000000004 L 405.9996 448.0015000000001 C 405.9371 452.4976000000001 407.6793 456.8335000000001 410.83549999999997 460.0365000000001 C 413.9917 463.2357000000001 418.30429999999996 465.0404000000001 422.80049999999994 465.0404000000001 C 427.29659999999996 465.0404000000001 431.60519999999997 463.23570000000007 434.7654999999999 460.0365000000001 C 437.92169999999993 456.8334000000001 439.6638999999999 452.4974000000001 439.6013999999999 448.0015000000001 L 439.6013999999999 257.6015000000001 C 439.6951499999999 253.0546000000001 437.9411999999999 248.6640000000001 434.7419999999999 245.4295000000001 C 431.5427999999999 242.1990000000001 427.17169999999993 240.4022000000001 422.6249999999999 240.4490000000001 z" stroke-linecap="round" />
</g>
</svg>