<?xml version="1.0" encoding="UTF-8" standalone="no" ?>
<!DOCTYPE svg PUBLIC "-//W3C//DTD SVG 1.1//EN" "http://www.w3.org/Graphics/SVG/1.1/DTD/svg11.dtd">
<svg xmlns="http://www.w3.org/2000/svg" xmlns:xlink="http://www.w3.org/1999/xlink" version="1.1" width="1080" height="1080" viewBox="0 0 1080 1080" xml:space="preserve">
<desc>Created with Fabric.js 5.2.4</desc>
<defs>
</defs>
<g transform="matrix(1 0 0 1 540 540)" id="035536a2-7046-4395-9e71-d5b1da4d1867"  >
<rect style="stroke: none; stroke-width: 1; stroke-dasharray: none; stroke-linecap: butt; stroke-dashoffset: 0; stroke-linejoin: miter; stroke-miterlimit: 4; fill: rgb(255,255,255); fill-rule: nonzero; opacity: 1; visibility: hidden;" vector-effect="non-scaling-stroke"  x="-540" y="-540" rx="0" ry="0" width="1080" height="1080" />
</g>
<g transform="matrix(1 0 0 1 540 540)" id="ce5ef4f4-a2f1-4551-9790-6308511472e2"  >
</g>
<g transform="matrix(1.49 0 0 1.49 540 540)"  >
<g style="" vector-effect="non-scaling-stroke"   >
		<g transform="matrix(1.33 0 0 1.33 -184.46 0)"  >
<path style="stroke: none; stroke-width: 1; stroke-dasharray: none; stroke-linecap: butt; stroke-dashoffset: 0; stroke-linejoin: miter; stroke-miterlimit: 4; fill: rgb(0,0,0); fill-rule: nonzero; opacity: 1;" vector-effect="non-scaling-stroke"  transform=" translate(-211.65, -280)" d="M 191.95 17.504 L 180.48899999999998 52.527 L 191.95 87.55000000000001 L 191.95 252.93 L 140.688 252.93 L 140.688 484.31 C 140.688 516.548 172.32899999999998 542.498 211.637 542.498 C 250.946 542.498 282.61 516.5490000000001 282.61 484.31000000000006 L 282.61 252.93000000000006 L 231.348 252.93000000000006 L 231.348 87.55000000000007 L 242.80900000000003 52.527000000000065 L 231.348 17.50400000000006 z" stroke-linecap="round" />
</g>
		<g transform="matrix(1.33 0 0 1.33 133.11 0)"  >
<path style="stroke: none; stroke-width: 1; stroke-dasharray: none; stroke-linecap: butt; stroke-dashoffset: 0; stroke-linejoin: miter; stroke-miterlimit: 4; fill: rgb(0,0,0); fill-rule: nonzero; opacity: 1;" vector-effect="non-scaling-stroke"  transform=" translate(-449.82, -280)" d="M 404.28 17.5 C 404.20578099999994 17.503906 404.13156 17.511719 404.05343999999997 17.519531 C 387.40144 17.519531 371.42044 24.066431 359.53043999999994 35.695531 C 359.34293999999994 35.828341 359.16715999999997 36.027561000000006 358.99918999999994 36.164281 C 358.84684999999996 36.297091 358.70230999999995 36.496311000000006 358.56949999999995 36.629121000000005 C 346.9094999999999 48.52712100000001 340.35049999999995 64.53912100000001 340.35049999999995 81.21512100000001 L 340.35049999999995 148.297121 C 340.346594 148.394777 340.346594 148.594001 340.35049999999995 148.691651 C 340.35049999999995 165.582651 347.05359999999996 181.804651 358.99549999999994 193.746651 L 397.7924999999999 232.543651 L 397.7924999999999 490.483651 C 397.7964059999999 490.616461 397.8120309999999 490.83912100000003 397.8315619999999 491.010991 C 398.0190619999999 509.373991 407.9055619999999 526.338991 423.8315619999999 535.533991 C 439.9135619999999 544.819191 459.7335619999999 544.819191 475.8155619999999 535.533991 C 491.67456199999987 526.377791 501.5265619999999 509.510991 501.7955619999999 491.232991 C 501.8346249999999 491.002521 501.85415599999993 490.732991 501.8580619999999 490.479081 L 501.8580619999999 232.539081 L 540.5140619999999 193.883081 C 540.5609369999999 193.851831 540.6117179999999 193.816675 540.6546819999999 193.750271 C 552.5956819999999 181.809271 559.2996819999998 165.586271 559.2996819999998 148.695271 L 559.2996819999998 81.449271 L 559.2996819999998 81.218801 C 559.2996819999998 64.577801 552.7605819999999 48.605801 541.1436819999999 36.714801 C 541.0968069999999 36.683551 541.0460259999999 36.617145 541.0030619999999 36.581991 C 540.9366559999999 36.515585 540.8897819999999 36.449181 540.8194719999999 36.351521000000005 C 540.764785 36.320271000000005 540.7140019999999 36.253865000000005 540.6593119999999 36.218711000000006 C 540.4835319999999 36.01949100000001 540.2921219999998 35.86324100000001 540.0890019999999 35.691371000000004 C 528.202002 24.093371000000005 512.2340019999999 17.574371000000003 495.60500199999996 17.574371000000003 C 495.429222 17.566558000000004 495.24953199999993 17.566558000000004 495.07375199999996 17.574371000000003 C 492.46825199999995 17.929841000000003 490.335452 20.179871000000002 490.36675199999996 22.812671 L 490.36675199999996 136.802671 C 490.36675199999996 151.298671 482.66755199999994 164.685671 470.11275199999994 171.931671 C 457.55775199999994 179.181671 442.0967519999999 179.181671 429.54275199999995 171.931671 C 416.98775199999994 164.681671 409.28875199999993 151.29867099999998 409.28875199999993 136.802671 L 409.28875199999993 25.012670999999997 C 409.28875199999993 21.426771 408.2340519999999 17.332970999999997 404.2770519999999 17.555670999999997 z" stroke-linecap="round" />
</g>
</g>
</g>
</svg>